# xmcd
#
# Track frame offsets: 
#        150
#        5118
#        25090
#        47124
#        66010
#        80661
#        95925
#        113111
#        131022
#        146342
#        165812
#        171936
#        190711
#        210823
#
# Disc length: 3100 seconds
#
# Revision: 0
# Processed by: cddbd v1.5.1PL0 Copyright (c) Steve Scherf et al.
# Submitted via: ExactAudioCopy v0.95a5
#
DISCID=b60c1a0e
DTITLE=欧得洋 - OCEAN
DYEAR=2004
DGENRE=Pop
TTITLE0=两件事
TTITLE1=幸福车站
TTITLE2=咻咻咻
TTITLE3=孤单北半球
TTITLE4=浪漫群岛
TTITLE5=力气
TTITLE6=玛雅金字塔
TTITLE7=一人一半
TTITLE8=无尾熊
TTITLE9=朋友最近好吗
TTITLE10=两件事
TTITLE11=孤单北半球(伴奏)
TTITLE12=幸福车站(伴奏)
TTITLE13=咻咻咻(伴奏)
EXTD=
EXTT0=
EXTT1=
EXTT2=
EXTT3=
EXTT4=
EXTT5=
EXTT6=
EXTT7=
EXTT8=
EXTT9=
EXTT10=
EXTT11=
EXTT12=
EXTT13=
PLAYORDER=
